<svg width="512" height="512" viewBox="0 0 512 512" fill="none" xmlns="http://www.w3.org/2000/svg">
  <rect width="512" height="512" rx="128" fill="url(#gradient)"/>
  <defs>
    <linearGradient id="gradient" x1="0" y1="0" x2="512" y2="512" gradientUnits="userSpaceOnUse">
      <stop offset="0%" stop-color="#5b4fc8"/>
      <stop offset="100%" stop-color="#7d71e8"/>
    </linearGradient>
  </defs>
  
  <g transform="translate(100, 100)">
    <circle cx="100" cy="80" r="50" fill="white" opacity="0.9"/>
    <ellipse cx="100" cy="160" rx="80" ry="100" fill="white" opacity="0.9"/>
    
    <circle cx="85" cy="70" r="8" fill="#333"/>
    <circle cx="115" cy="70" r="8" fill="#333"/>
    
    <path d="M 85 90 Q 100 100 115 90" stroke="#333" stroke-width="4" fill="none" stroke-linecap="round"/>
    
    <ellipse cx="50" cy="100" rx="30" ry="40" fill="white" opacity="0.8"/>
    <ellipse cx="150" cy="100" rx="30" ry="40" fill="white" opacity="0.8"/>
    
    <path d="M 140 200 L 150 240 L 140 245" stroke="white" stroke-width="15" stroke-linecap="round" fill="none" opacity="0.8"/>
    <path d="M 160 200 L 170 240 L 160 245" stroke="white" stroke-width="15" stroke-linecap="round" fill="none" opacity="0.8"/>
    <path d="M 40 200 L 30 240 L 40 245" stroke="white" stroke-width="15" stroke-linecap="round" fill="none" opacity="0.8"/>
    <path d="M 60 200 L 50 240 L 60 245" stroke="white" stroke-width="15" stroke-linecap="round" fill="none" opacity="0.8"/>
  </g>
  
  <path d="M 380 380 L 420 420 M 380 420 L 420 380" stroke="white" stroke-width="8" stroke-linecap="round" opacity="0.6"/>
  <circle cx="400" cy="400" r="40" stroke="white" stroke-width="8" fill="none" opacity="0.6"/>
</svg>
